<svg width="633" height="634" viewBox="0 0 633 634" fill="none" xmlns="http://www.w3.org/2000/svg">
<path d="M77.8357 243.995L557.074 386.609" stroke="white" stroke-width="1.42" stroke-miterlimit="10"/>
<path d="M104.88 183.683L530.057 446.961" stroke="white" stroke-width="1.42" stroke-miterlimit="10"/>
<path d="M146.771 132.581L488.179 498.119" stroke="white" stroke-width="1.42" stroke-miterlimit="10"/>
<path d="M200.584 94.2332L434.366 536.508" stroke="white" stroke-width="1.42" stroke-miterlimit="10"/>
<path d="M262.542 71.3347L372.38 559.461" stroke="white" stroke-width="1.42" stroke-miterlimit="10"/>
<path d="M328.346 65.4932L306.549 565.344" stroke="white" stroke-width="1.42" stroke-miterlimit="10"/>
<path d="M393.381 77.0935L241.487 553.785" stroke="white" stroke-width="1.42" stroke-miterlimit="10"/>
<path d="M453.1 105.339L181.713 525.553" stroke="white" stroke-width="1.42" stroke-miterlimit="10"/>
<path d="M503.329 148.25L131.429 482.656" stroke="white" stroke-width="1.42" stroke-miterlimit="10"/>
<path d="M540.592 202.843L94.1252 428.063" stroke="white" stroke-width="1.42" stroke-miterlimit="10"/>
<path d="M562.252 265.285L72.4104 365.593" stroke="white" stroke-width="1.42" stroke-miterlimit="10"/>
<path d="M566.798 331.232L67.823 299.619" stroke="white" stroke-width="1.42" stroke-miterlimit="10"/>
<path d="M317.372 567.419C455.733 567.419 567.897 455.176 567.897 316.717C567.897 178.258 455.733 66.0154 317.372 66.0154C179.011 66.0154 66.8477 178.258 66.8477 316.717C66.8477 455.176 179.011 567.419 317.372 567.419Z" stroke="white" stroke-width="2.83" stroke-miterlimit="10"/>
<path d="M319.432 613.904C483.448 613.904 616.408 480.849 616.408 316.717C616.408 152.586 483.448 19.531 319.432 19.531C155.417 19.531 22.4565 152.586 22.4565 316.717C22.4565 480.849 155.417 613.904 319.432 613.904Z" stroke="white" stroke-width="2.83" stroke-miterlimit="10"/>
<path d="M384.563 559.255L376.94 605.698C376.817 606.427 375.855 606.619 375.471 605.987L351.023 565.935" stroke="white" stroke-width="1.42" stroke-miterlimit="10"/>
<path d="M345.927 566.691L331.148 611.361C330.915 612.062 329.94 612.103 329.651 611.416L311.768 568.024" stroke="white" stroke-width="1.42" stroke-miterlimit="10"/>
<path d="M306.59 567.997L284.999 609.808C284.656 610.468 283.681 610.344 283.516 609.629L272.638 563.983" stroke="white" stroke-width="1.42" stroke-miterlimit="10"/>
<path d="M267.542 563.131L239.687 601.039C239.248 601.63 238.3 601.369 238.245 600.627L234.633 553.84" stroke="white" stroke-width="1.42" stroke-miterlimit="10"/>
<path d="M229.743 552.218L196.299 585.301C195.777 585.824 194.884 585.411 194.939 584.669L198.689 537.882" stroke="white" stroke-width="1.42" stroke-miterlimit="10"/>
<path d="M194.102 535.518L155.905 562.966C155.301 563.392 154.49 562.856 154.669 562.128L165.684 516.509" stroke="white" stroke-width="1.42" stroke-miterlimit="10"/>
<path d="M161.522 513.431L119.507 534.556C118.848 534.886 118.134 534.226 118.409 533.539L136.429 490.202" stroke="white" stroke-width="1.42" stroke-miterlimit="10"/>
<path d="M132.789 486.532L87.9856 500.827C87.2851 501.047 86.6808 500.277 87.0653 499.645L111.637 459.662" stroke="white" stroke-width="1.42" stroke-miterlimit="10"/>
<path d="M108.616 455.456L62.123 462.548C61.395 462.658 60.9143 461.806 61.395 461.242L91.9139 425.602" stroke="white" stroke-width="1.42" stroke-miterlimit="10"/>
<path d="M89.6064 420.984L42.5781 420.723C41.8365 420.723 41.5068 419.802 42.0699 419.321L77.7807 388.89" stroke="white" stroke-width="1.42" stroke-miterlimit="10"/>
<path d="M76.2012 383.956L29.791 376.328C29.063 376.204 28.8707 375.242 29.5025 374.857L69.526 350.392" stroke="white" stroke-width="1.42" stroke-miterlimit="10"/>
<path d="M68.7706 345.292L24.1322 330.503C23.4317 330.27 23.3905 329.294 24.0772 329.005L67.4383 311.11" stroke="white" stroke-width="1.42" stroke-miterlimit="10"/>
<path d="M67.4657 305.942L25.6842 284.335C25.0249 283.991 25.1485 283.016 25.8627 282.851L71.4763 271.965" stroke="white" stroke-width="1.42" stroke-miterlimit="10"/>
<path d="M72.3279 266.866L34.4471 238.992C33.8565 238.552 34.1174 237.603 34.8591 237.548L81.6127 233.934" stroke="white" stroke-width="1.42" stroke-miterlimit="10"/>
<path d="M83.2333 229.027L50.1735 195.558C49.6515 195.036 50.0636 194.143 50.8053 194.198L97.5588 197.95" stroke="white" stroke-width="1.42" stroke-miterlimit="10"/>
<path d="M99.9213 193.373L72.4927 155.149C72.0669 154.545 72.6026 153.734 73.3305 153.912L118.917 164.936" stroke="white" stroke-width="1.42" stroke-miterlimit="10"/>
<path d="M121.993 160.757L100.883 118.712C100.553 118.053 101.212 117.338 101.899 117.613L145.205 135.646" stroke="white" stroke-width="1.42" stroke-miterlimit="10"/>
<path d="M148.872 132.003L134.588 87.1684C134.368 86.4675 135.138 85.8627 135.769 86.2476L175.724 110.837" stroke="white" stroke-width="1.42" stroke-miterlimit="10"/>
<path d="M179.927 107.813L172.84 61.2872C172.73 60.5587 173.581 60.0777 174.145 60.5587L209.759 91.0993" stroke="white" stroke-width="1.42" stroke-miterlimit="10"/>
<path d="M214.374 88.7902L214.635 41.7286C214.635 40.9864 215.555 40.6565 216.036 41.2201L246.445 76.9561" stroke="white" stroke-width="1.42" stroke-miterlimit="10"/>
<path d="M251.376 75.3893L258.999 28.9462C259.122 28.2178 260.084 28.0253 260.468 28.6576L284.917 68.7094" stroke="white" stroke-width="1.42" stroke-miterlimit="10"/>
<path d="M290.012 67.9397L304.791 23.2696C305.024 22.5687 306 22.5274 306.288 23.2147L324.171 66.6064" stroke="white" stroke-width="1.42" stroke-miterlimit="10"/>
<path d="M329.335 66.6338L350.926 24.8227C351.27 24.1629 352.245 24.2866 352.41 25.0014L363.288 70.6473" stroke="white" stroke-width="1.42" stroke-miterlimit="10"/>
<path d="M368.384 71.4995L396.238 33.5918C396.677 33.0008 397.625 33.2619 397.68 34.0042L401.292 80.7909" stroke="white" stroke-width="1.42" stroke-miterlimit="10"/>
<path d="M406.196 82.4128L439.64 49.3295C440.162 48.8072 441.055 49.2196 441 49.9618L437.25 96.7485" stroke="white" stroke-width="1.42" stroke-miterlimit="10"/>
<path d="M441.824 99.1261L480.021 71.6781C480.625 71.252 481.435 71.788 481.257 72.5165L470.241 118.135" stroke="white" stroke-width="1.42" stroke-miterlimit="10"/>
<path d="M474.417 121.2L516.432 100.075C517.091 99.7448 517.805 100.405 517.531 101.092L499.511 144.429" stroke="white" stroke-width="1.42" stroke-miterlimit="10"/>
<path d="M503.15 148.098L547.954 133.804C548.654 133.584 549.258 134.354 548.874 134.986L524.302 174.969" stroke="white" stroke-width="1.42" stroke-miterlimit="10"/>
<path d="M527.324 179.175L573.816 172.083C574.544 171.973 575.025 172.825 574.544 173.388L544.025 209.028" stroke="white" stroke-width="1.42" stroke-miterlimit="10"/>
<path d="M546.333 213.646L593.361 213.908C594.103 213.908 594.432 214.829 593.869 215.31L558.159 245.74" stroke="white" stroke-width="1.42" stroke-miterlimit="10"/>
<path d="M559.724 250.675L606.135 258.303C606.863 258.427 607.055 259.389 606.423 259.773L566.4 284.239" stroke="white" stroke-width="1.42" stroke-miterlimit="10"/>
<path d="M567.169 289.338L611.807 304.127C612.508 304.361 612.549 305.337 611.862 305.626L568.501 323.521" stroke="white" stroke-width="1.42" stroke-miterlimit="10"/>
<path d="M568.473 328.703L610.255 350.309C610.914 350.653 610.791 351.629 610.076 351.794L564.463 362.679" stroke="white" stroke-width="1.42" stroke-miterlimit="10"/>
<path d="M563.611 367.779L601.492 395.653C602.083 396.093 601.822 397.041 601.08 397.096L554.326 400.711" stroke="white" stroke-width="1.42" stroke-miterlimit="10"/>
<path d="M552.706 405.604L585.766 439.072C586.288 439.594 585.876 440.488 585.134 440.433L538.38 436.681" stroke="white" stroke-width="1.42" stroke-miterlimit="10"/>
<path d="M536.004 441.271L563.433 479.495C563.858 480.1 563.323 480.911 562.595 480.732L517.009 469.709" stroke="white" stroke-width="1.42" stroke-miterlimit="10"/>
<path d="M513.946 473.874L535.056 515.918C535.386 516.578 534.727 517.293 534.04 517.018L490.734 498.985" stroke="white" stroke-width="1.42" stroke-miterlimit="10"/>
<path d="M487.067 502.627L501.351 547.462C501.571 548.163 500.802 548.768 500.17 548.383L460.215 523.794" stroke="white" stroke-width="1.42" stroke-miterlimit="10"/>
<path d="M456.012 526.818L463.099 573.343C463.209 574.072 462.358 574.553 461.794 574.072L426.18 543.531" stroke="white" stroke-width="1.42" stroke-miterlimit="10"/>
<path d="M421.565 545.84L421.304 592.902C421.304 593.644 420.384 593.974 419.903 593.41L389.494 557.674" stroke="white" stroke-width="1.42" stroke-miterlimit="10"/>
<path d="M264.258 629.163L247.972 625.992C244.237 625.265 241.794 621.638 242.521 617.901L245.157 604.342L274.979 610.149L272.343 623.708C271.616 627.445 267.993 629.89 264.258 629.163Z" fill="white"/>
<path d="M178.374 601.773L163.64 594.139C160.261 592.389 158.938 588.221 160.687 584.84L167.033 572.573L194.013 586.55L187.667 598.817C185.918 602.198 181.753 603.523 178.374 601.773Z" fill="white"/>
<path d="M103.683 551.26L91.6942 539.783C88.945 537.151 88.8481 532.779 91.4781 530.028L101.02 520.046L122.974 541.063L113.432 551.044C110.802 553.795 106.433 553.892 103.683 551.26Z" fill="white"/>
<path d="M46.3064 481.806L38.0356 467.413C36.1391 464.112 37.2776 459.89 40.5757 457.992L52.542 451.106L67.6868 477.462L55.7206 484.348C52.4224 486.246 48.2029 485.107 46.3064 481.806Z" fill="white"/>
<path d="M10.7674 398.926L6.88292 382.784C5.99218 379.083 8.27314 375.352 11.972 374.461L25.3919 371.226L32.5049 400.785L19.085 404.019C15.3862 404.91 11.6582 402.627 10.7674 398.926Z" fill="white"/>
<path d="M0.0136387 309.426L0.832819 292.843C1.02066 289.04 4.25983 286.104 8.05975 286.292L21.8465 286.974L20.3465 317.34L6.55973 316.658C2.75981 316.47 -0.174203 313.229 0.0136387 309.426Z" fill="white"/>
<path d="M14.8934 220.481L20.3472 204.8C21.5978 201.205 25.5322 199.3 29.1254 200.552L42.1619 205.092L32.1754 233.806L19.1389 229.266C15.5457 228.014 13.6429 224.077 14.8934 220.481Z" fill="white"/>
<path d="M54.2026 139.34L63.8493 125.831C66.0613 122.734 70.3724 122.015 73.4679 124.229L84.6986 132.26L67.0343 156.997L55.8036 148.965C52.7082 146.752 51.9906 142.437 54.2026 139.34Z" fill="white"/>
<path d="M114.764 72.5814L127.824 62.341C130.819 59.9928 135.158 60.5198 137.504 63.5166L146.018 74.3898L122.103 93.1413L113.589 82.2681C111.243 79.2712 111.769 74.9296 114.764 72.5814Z" fill="white"/>
<path d="M191.671 25.5896L207.085 19.4452C210.619 18.0362 214.634 19.7647 216.042 23.3017L221.15 36.1343L192.926 47.3857L187.817 34.553C186.409 31.016 188.137 26.9986 191.671 25.5896Z" fill="white"/>
<path d="M278.699 2.18213L295.218 0.631141C299.006 0.275492 302.372 3.06563 302.727 6.85624L304.017 20.6092L273.768 23.4492L272.479 9.69629C272.123 5.90568 274.911 2.53778 278.699 2.18213Z" fill="white"/>
<path d="M368.781 4.28331L385.068 7.45425C388.802 8.18136 391.246 11.8076 390.519 15.5448L387.883 29.1039L358.06 23.2975L360.697 9.73838C361.423 6.0012 365.047 3.5562 368.781 4.28331Z" fill="white"/>
<path d="M454.626 31.6589L469.36 39.2921C472.739 41.0424 474.062 45.2105 472.313 48.5916L465.967 60.8586L438.987 46.8813L445.333 34.6142C447.082 31.2332 451.247 29.9086 454.626 31.6589Z" fill="white"/>
<path d="M529.306 82.1267L541.295 93.6041C544.044 96.2359 544.141 100.608 541.511 103.359L531.969 113.341L510.015 92.3246L519.557 82.343C522.187 79.5919 526.557 79.4949 529.306 82.1267Z" fill="white"/>
<path d="M586.683 151.647L594.954 166.041C596.851 169.341 595.712 173.564 592.414 175.462L580.448 182.347L565.303 155.991L577.269 149.105C580.567 147.207 584.787 148.347 586.683 151.647Z" fill="white"/>
<path d="M622.235 234.515L626.12 250.657C627.011 254.358 624.73 258.089 621.031 258.98L607.611 262.214L600.498 232.656L613.918 229.422C617.617 228.531 621.345 230.813 622.235 234.515Z" fill="white"/>
<path d="M632.939 324.012L632.12 340.595C631.932 344.398 628.693 347.334 624.893 347.146L611.106 346.464L612.606 316.098L626.393 316.78C630.193 316.968 633.127 320.209 632.939 324.012Z" fill="white"/>
<path d="M618.094 412.966L612.64 428.647C611.39 432.243 607.455 434.147 603.862 432.895L590.826 428.355L600.812 399.641L613.849 404.182C617.442 405.433 619.345 409.37 618.094 412.966Z" fill="white"/>
<path d="M578.816 494.14L569.17 507.649C566.957 510.746 562.646 511.464 559.551 509.251L548.32 501.219L565.984 476.483L577.215 484.514C580.311 486.728 581.028 491.042 578.816 494.14Z" fill="white"/>
<path d="M518.244 560.824L505.184 571.065C502.189 573.413 497.85 572.886 495.504 569.889L486.99 559.016L510.905 540.264L519.419 551.138C521.765 554.135 521.239 558.476 518.244 560.824Z" fill="white"/>
<path d="M441.323 607.859L425.909 614.004C422.375 615.413 418.36 613.684 416.952 610.147L411.844 597.315L440.069 586.063L445.177 598.896C446.585 602.433 444.858 606.45 441.323 607.859Z" fill="white"/>
<path d="M354.279 631.277L337.76 632.828C333.972 633.183 330.607 630.393 330.251 626.603L328.962 612.85L359.211 610.01L360.5 623.763C360.855 627.553 358.067 630.921 354.279 631.277Z" fill="white"/>
</svg>
